# xmcd
#
# Track frame offsets:
#	150
#	15311
#	26478
#	33536
#	43960
#	52218
#	56089
#	70169
#	84109
#	98846
#	108292
#	117199
#	129159
#	136417
#	141396
#	155229
#	169121
#	182759
#	196103
#	209415
#	220260
#	230599
#
# Disc length: 3200 seconds
#
# Revision: 0
# Processed by: cddbd v1.5.2PL0 Copyright (c) Steve Scherf et al.
# Submitted via: audiograbber 1.83.01
#
DISCID=3d0c7e16
DTITLE=Leadbelly - BD Blues Disc 2
DYEAR=1900
DGENRE=Blues
TTITLE0=Western cowboy
TTITLE1=Good night Irene
TTITLE2=Pick a bale of cotton
TTITLE3=Take this hammer
TTITLE4=On a monday
TTITLE5=Bring a little water, Sylvie
TTITLE6=Whoa buck
TTITLE7=Alabama bound
TTITLE8=Go down, old Hannah
TTITLE9=Rock Iland line
TTITLE10=New Orleans song
TTITLE11=You can't lose me Cholly
TTITLE12=Ha ha this a way
TTITLE13=Cadjin Jump
TTITLE14=The Gallis pole
TTITLE15=Gray goose
TTITLE16=Stewball
TTITLE17=Linig track
TTITLE18=Pork and beans
TTITLE19=Skip to my Lou
TTITLE20=John Henry
TTITLE21=Corn bread rough
EXTD=
EXTT0=
EXTT1=
EXTT2=
EXTT3=
EXTT4=
EXTT5=
EXTT6=
EXTT7=
EXTT8=
EXTT9=
EXTT10=
EXTT11=
EXTT12=
EXTT13=
EXTT14=
EXTT15=
EXTT16=
EXTT17=
EXTT18=
EXTT19=
EXTT20=
EXTT21=
PLAYORDER=
